<?xml version="1.0" encoding="UTF-8"?>
<svg version="1.1" xmlns="http://www.w3.org/2000/svg" width="534" height="534">
<path d="M0 0 C84.15 0 168.3 0 255 0 C254.1089031 3.5643876 253.58097007 4.89754972 251.515625 7.6953125 C250.74085815 8.75540527 250.74085815 8.75540527 249.95043945 9.83691406 C249.38929443 10.59198242 248.82814941 11.34705078 248.25 12.125 C247.06104247 13.74728192 245.8722449 15.36968108 244.68359375 16.9921875 C243.76682861 18.23693848 243.76682861 18.23693848 242.83154297 19.50683594 C239.96837307 23.40428875 237.14073139 27.32716023 234.3125 31.25 C233.76948242 32.00168457 233.22646484 32.75336914 232.66699219 33.52783203 C229.43074888 38.00870909 226.20837091 42.49913262 223 47 C219.24791618 52.26361575 215.47334082 57.51061165 211.6875 62.75 C210.8668103 63.88586548 210.8668103 63.88586548 210.02954102 65.04467773 C207.25629293 68.88165963 204.480812 72.71701171 201.703125 76.55078125 C196.42667206 83.83809915 191.17673876 91.14142863 186 98.5 C178.6030441 109.01454021 171.05328017 119.4177672 163.5 129.8203125 C162.92435303 130.61445557 162.34870605 131.40859863 161.75561523 132.22680664 C160.66808489 133.72708102 159.57917185 135.22635463 158.48852539 136.72436523 C154.86043594 141.73146759 151.39684408 146.83344768 148 152 C155.70664366 162.96981711 163.49302084 173.87773028 171.35888672 184.73388672 C174.07648173 188.486448 176.78794473 192.24343419 179.5 196 C180.58330362 197.50002146 181.66663696 199.00002146 182.75 200.5 C184.91666667 203.5 187.08333333 206.5 189.25 209.5 C190.05473755 210.6142334 190.05473755 210.6142334 190.87573242 211.75097656 C191.95667191 213.24768701 193.03756401 214.74443168 194.1184082 216.24121094 C196.8629754 220.04182637 199.60841966 223.84180298 202.35546875 227.640625 C207.65467424 234.97036718 212.94304209 242.30713176 218.19213867 249.67285156 C221.60863252 254.46267563 225.05238955 259.23253869 228.5 264 C232.34888977 269.32236265 236.18813421 274.65105378 240 280 C243.75200984 285.26367144 247.5269849 290.51037531 251.3125 295.75 C251.85165039 296.49709229 252.39080078 297.24418457 252.94628906 298.01391602 C255.84763612 302.03179269 258.75899406 306.04198067 261.68359375 310.04296875 C262.28067139 310.86249023 262.87774902 311.68201172 263.49291992 312.52636719 C264.64226643 314.10354464 265.7946543 315.67851136 266.95043945 317.25097656 C267.46695068 317.96092773 267.98346191 318.67087891 268.515625 319.40234375 C269.20060059 320.33808228 269.20060059 320.33808228 269.89941406 321.29272461 C271 323 271 323 272 326 C187.52 326 103.04 326 16 326 C16 312.47 16 298.94 16 285 C76.06 284.67 136.12 284.34 198 284 C190.77650073 273.44257798 183.72442341 263.22059429 176.02734375 253.0859375 C172.14979324 247.91502894 168.5502107 242.55883016 164.92578125 237.20922852 C159.65486462 229.44639193 154.17109349 221.84847006 148.64697266 214.26464844 C145.81601448 210.37197604 143.00313409 206.46626233 140.1875 202.5625 C135.47236196 196.0314109 130.74556737 189.50902594 126 183 C125.2265625 183.99 125.2265625 183.99 124.4375 185 C121.38791415 188.75333644 118.2013319 192.37602035 115 196 C121.77958124 205.74210022 128.57848444 215.46551968 135.5625 225.0625 C140.64062384 232.04288795 145.53842221 239.13180593 150.37792969 246.27929688 C154.23455677 251.95150533 158.26612823 257.44299718 162.48828125 262.84765625 C164 265 164 265 164 267 C115.82 267 67.64 267 18 267 C18 260.73 18 254.46 18 248 C51 248 84 248 118 248 C112.06 239.09 106.12 230.18 100 221 C98.28554687 218.33679688 96.57109375 215.67359375 94.8046875 212.9296875 C94.13179688 211.89328125 93.45890625 210.856875 92.765625 209.7890625 C91.44720654 207.7569547 90.14922647 205.71150313 88.8671875 203.65625 C85.66324422 198.41032001 85.66324422 198.41032001 80.73144531 195.11035156 C78.30058306 194.7254771 78.30058306 194.7254771 75 195 C75.350625 194.2575 75.70125 193.515 76.0625 192.75 C77.11600434 189.65972059 77.06782955 188.98992275 76 186 C74.86526517 184.05163037 73.67260454 182.13634147 72.4375 180.25 C71.79683594 179.26515625 71.15617187 178.2803125 70.49609375 177.265625 C69.75552734 176.14414062 69.75552734 176.14414062 69 175 C65.65104768 176.11631744 65.28060309 176.64302044 63.40625 179.45703125 C62.93316406 180.15763672 62.46007812 180.85824219 61.97265625 181.58007812 C61.48667969 182.31677734 61.00070313 183.05347656 60.5 183.8125 C59.53190001 185.25694628 58.56316842 186.70096949 57.59375 188.14453125 C57.16771484 188.78753174 56.74167969 189.43053223 56.30273438 190.09301758 C55.65788086 191.03697388 55.65788086 191.03697388 55 192 C54.58387451 192.7314624 54.16774902 193.4629248 53.73901367 194.21655273 C52 196 52 196 49.08911133 196.45410156 C47.9317749 196.4331543 46.77443848 196.41220703 45.58203125 196.390625 C44.32841797 196.37773437 43.07480469 196.36484375 41.78320312 196.3515625 C39.81770508 196.30128906 39.81770508 196.30128906 37.8125 196.25 C36.4772399 196.22993307 35.14195117 196.21168262 33.80664062 196.1953125 C30.53703854 196.14809803 27.26887808 196.08225184 24 196 C24.59592763 191.7425237 27.09595745 188.59072524 29.48046875 185.14453125 C29.9309407 184.48345871 30.38141266 183.82238617 30.84553528 183.14128113 C32.28738048 181.02788264 33.73720864 178.920109 35.1875 176.8125 C36.14442906 175.4137868 37.10081498 174.01470184 38.05664062 172.61523438 C38.52216339 171.93443817 38.98768616 171.25364197 39.46731567 170.55221558 C40.38694747 169.20559093 41.30499892 167.85788558 42.22140503 166.50906372 C44.13486978 163.69732585 46.06185003 160.91635975 48.08447266 158.18115234 C48.65085449 157.40336426 49.21723633 156.62557617 49.80078125 155.82421875 C50.28329346 155.18959717 50.76580566 154.55497559 51.26293945 153.90112305 C52.25009646 151.92168115 52.25009646 151.92168115 51.28637695 149.4921875 C50.1623766 147.31458347 49.01116361 145.31256098 47.6171875 143.30078125 C47.17246094 142.64916016 46.72773438 141.99753906 46.26953125 141.32617188 C45.80933594 140.66166016 45.34914062 139.99714844 44.875 139.3125 C40 132.26859504 40 132.26859504 40 130 C49.24 130 58.48 130 68 130 C68.99 128.02 68.99 128.02 70 126 C71.36147031 123.87525429 72.74042945 121.77304239 74.1484375 119.6796875 C74.56106842 119.06215607 74.97369934 118.44462463 75.39883423 117.80838013 C76.72205356 115.82912522 78.04843897 113.85201634 79.375 111.875 C80.22808055 110.60040493 81.08094686 109.32566646 81.93359375 108.05078125 C84.6214338 104.03321038 87.31074279 100.0166224 90 96 C93.96 90.06 97.92 84.12 102 78 C69 78 36 78 2 78 C2 71.73 2 65.46 2 59 C50.18 59 98.36 59 148 59 C143.50113379 66.87301587 143.50113379 66.87301587 141.40625 69.8046875 C140.93960938 70.46146484 140.47296875 71.11824219 139.9921875 71.79492188 C139.49976563 72.48134766 139.00734375 73.16777344 138.5 73.875 C137.42699849 75.38275212 136.35408427 76.89056637 135.28125 78.3984375 C134.73597656 79.1625293 134.19070313 79.92662109 133.62890625 80.71386719 C131.0734261 84.30042536 128.53728839 87.90056172 126 91.5 C125.00269361 92.91282356 124.00529749 94.32558378 123.0078125 95.73828125 C120.98069554 98.60992022 118.95478336 101.48240417 116.9296875 104.35546875 C110.65167851 113.25997132 104.34460563 122.14281824 98 131 C104.93947066 132.21546536 112.17675869 133.15718031 119 131 C124.38061533 126.83742242 127.36455391 120.41366624 130.55126953 114.5390625 C132.70720281 110.76054783 135.31473162 107.41229191 138 104 C142.92641689 97.55726407 147.52504314 90.9256047 152.07202148 84.21142578 C156.26508944 78.03394298 160.58113992 71.9576662 164.98413086 65.92822266 C170.75302535 58.01665115 176.34975594 50.00451242 182 42 C91.91 41.505 91.91 41.505 0 41 C0 27.47 0 13.94 0 0 Z M93 137 C88.05 143.93 88.05 143.93 83 151 C86.35196573 156.91088668 86.35196573 156.91088668 90.125 162.4375 C90.62257813 163.11683594 91.12015625 163.79617188 91.6328125 164.49609375 C92.30957031 165.24052734 92.30957031 165.24052734 93 166 C93.66 166 94.32 166 95 166 C96.66816239 163.94961212 98.18632614 161.91707324 99.6875 159.75 C100.11611328 159.16347656 100.54472656 158.57695312 100.98632812 157.97265625 C103.3011271 154.74165802 103.3011271 154.74165802 104.015625 150.93359375 C102.58292891 148.20596081 100.89261969 145.7912697 99.0625 143.3125 C97.99708984 141.85263672 97.99708984 141.85263672 96.91015625 140.36328125 C95.21871728 137.93665204 95.21871728 137.93665204 93 137 Z " fill="#010200" transform="translate(139,113)"/>
<path d="M0 0 C0.66 0 1.32 0 2 0 C3.85543604 2.42280078 5.59528411 4.85625245 7.3125 7.375 C8.40268393 8.94728198 9.4938621 10.51887496 10.5859375 12.08984375 C11.15022461 12.90437012 11.71451172 13.71889648 12.29589844 14.55810547 C14.96543318 18.38341872 17.69909018 22.16132886 20.4375 25.9375 C20.97673096 26.68241699 21.51596191 27.42733398 22.0715332 28.19482422 C23.16700292 29.70807298 24.26278743 31.22109391 25.35888672 32.73388672 C28.07648173 36.486448 30.78794473 40.24343419 33.5 44 C34.58330362 45.50002146 35.66663696 47.00002146 36.75 48.5 C38.91666667 51.5 41.08333333 54.5 43.25 57.5 C44.05473755 58.6142334 44.05473755 58.6142334 44.87573242 59.75097656 C45.95667191 61.24768701 47.03756401 62.74443168 48.1184082 64.24121094 C50.8629754 68.04182637 53.60841966 71.84180298 56.35546875 75.640625 C61.65467424 82.97036718 66.94304209 90.30713176 72.19213867 97.67285156 C75.60863252 102.46267563 79.05238955 107.23253869 82.5 112 C86.34888977 117.32236265 90.18813421 122.65105378 94 128 C97.75200984 133.26367144 101.5269849 138.51037531 105.3125 143.75 C105.85165039 144.49709229 106.39080078 145.24418457 106.94628906 146.01391602 C109.84763612 150.03179269 112.75899406 154.04198067 115.68359375 158.04296875 C116.57921021 159.27225098 116.57921021 159.27225098 117.49291992 160.52636719 C118.64226643 162.10354464 119.7946543 163.67851136 120.95043945 165.25097656 C121.46695068 165.96092773 121.98346191 166.67087891 122.515625 167.40234375 C122.97227539 168.02616943 123.42892578 168.64999512 123.89941406 169.29272461 C125 171 125 171 126 174 C41.52 174 -42.96 174 -130 174 C-130 160.47 -130 146.94 -130 133 C-69.94 132.67 -9.88 132.34 52 132 C44.77650073 121.44257798 37.72442341 111.22059429 30.02734375 101.0859375 C26.14979324 95.91502894 22.5502107 90.55883016 18.92578125 85.20922852 C13.65486462 77.44639193 8.17109349 69.84847006 2.64697266 62.26464844 C0.95101421 59.93264272 -0.73843389 57.59605543 -2.42578125 55.2578125 C-2.98894043 54.47760742 -3.55209961 53.69740234 -4.13232422 52.89355469 C-5.23845294 51.35892565 -6.34298835 49.82314673 -7.44580078 48.28613281 C-9.79397199 45.01942721 -12.15345171 41.77326839 -14.62890625 38.6015625 C-15.37011719 37.63992188 -16.11132812 36.67828125 -16.875 35.6875 C-17.51179688 34.88699219 -18.14859375 34.08648437 -18.8046875 33.26171875 C-20.36403283 30.31119279 -19.91504389 29.16567623 -19 26 C-17.68066406 23.79931641 -17.68066406 23.79931641 -16.015625 21.6015625 C-15.40976562 20.79203125 -14.80390625 19.9825 -14.1796875 19.1484375 C-13.22449219 17.89933594 -13.22449219 17.89933594 -12.25 16.625 C-11.00481884 14.97164743 -9.76002078 13.31800626 -8.515625 11.6640625 C-7.91685547 10.87676758 -7.31808594 10.08947266 -6.70117188 9.27832031 C-5.13740426 7.18402075 -3.64937378 5.05393681 -2.171875 2.8984375 C-1.45515625 1.94195312 -0.7384375 0.98546875 0 0 Z " fill="#545454" transform="translate(285,265)"/>
<path d="M0 0 C48.18 0 96.36 0 146 0 C141.50113379 7.87301587 141.50113379 7.87301587 139.40625 10.8046875 C138.93960938 11.46146484 138.47296875 12.11824219 137.9921875 12.79492188 C137.49976563 13.48134766 137.00734375 14.16777344 136.5 14.875 C135.42699849 16.38275212 134.35408427 17.89056637 133.28125 19.3984375 C132.73597656 20.1625293 132.19070313 20.92662109 131.62890625 21.71386719 C129.0734261 25.30042536 126.53728839 28.90056172 124 32.5 C123.00269361 33.91282356 122.00529749 35.32558378 121.0078125 36.73828125 C118.98069554 39.60992022 116.95478336 42.48240417 114.9296875 45.35546875 C112.43750077 48.89079493 109.94229301 52.42396983 107.44482422 55.95556641 C106.47933304 57.32174131 105.5148189 58.68860721 104.55126953 60.05615234 C103.18279889 61.99775521 101.81061485 63.93667987 100.4375 65.875 C100.03192871 66.45209717 99.62635742 67.02919434 99.20849609 67.6237793 C97.30065302 70.30893677 95.34907948 72.69914209 93 75 C92.06847783 76.59689515 91.14160673 78.19688622 90.25 79.81640625 C87.67428042 84.31586639 84.80575241 88.64162617 82 93 C82.74507813 93.95261719 83.49015625 94.90523438 84.2578125 95.88671875 C85.21449978 97.1529225 86.17017685 98.41988996 87.125 99.6875 C87.86556641 100.62625977 87.86556641 100.62625977 88.62109375 101.58398438 C92.09631199 106.25839765 92.09631199 106.25839765 91.6875 109.40625 C89.1699061 113.27588507 86.57886457 117.07037652 83.875 120.8125 C83.31167969 121.60076172 82.74835938 122.38902344 82.16796875 123.20117188 C80.78322342 125.13746831 79.39381373 127.07022641 78 129 C73.96125306 127.20092182 72.54804719 125.17561651 70.25 121.375 C69.63640625 120.37210937 69.0228125 119.36921875 68.390625 118.3359375 C67.70226562 117.17964844 67.70226562 117.17964844 67 116 C63.65104768 117.11631744 63.28060309 117.64302044 61.40625 120.45703125 C60.93316406 121.15763672 60.46007812 121.85824219 59.97265625 122.58007812 C59.48667969 123.31677734 59.00070313 124.05347656 58.5 124.8125 C57.53190001 126.25694628 56.56316842 127.70096949 55.59375 129.14453125 C55.16771484 129.78753174 54.74167969 130.43053223 54.30273438 131.09301758 C53.65788086 132.03697388 53.65788086 132.03697388 53 133 C52.58387451 133.7314624 52.16774902 134.4629248 51.73901367 135.21655273 C50 137 50 137 47.08911133 137.45410156 C45.9317749 137.4331543 44.77443848 137.41220703 43.58203125 137.390625 C42.32841797 137.37773437 41.07480469 137.36484375 39.78320312 137.3515625 C37.81770508 137.30128906 37.81770508 137.30128906 35.8125 137.25 C34.4772399 137.22993307 33.14195117 137.21168262 31.80664062 137.1953125 C28.53703854 137.14809803 25.26887808 137.08225184 22 137 C22.59592763 132.7425237 25.09595745 129.59072524 27.48046875 126.14453125 C28.15617668 125.15292244 28.15617668 125.15292244 28.84553528 124.14128113 C30.28738048 122.02788264 31.73720864 119.920109 33.1875 117.8125 C34.14442906 116.4137868 35.10081498 115.01470184 36.05664062 113.61523438 C36.52216339 112.93443817 36.98768616 112.25364197 37.46731567 111.55221558 C38.38694747 110.20559093 39.30499892 108.85788558 40.22140503 107.50906372 C42.13486978 104.69732585 44.06185003 101.91635975 46.08447266 99.18115234 C46.65085449 98.40336426 47.21723633 97.62557617 47.80078125 96.82421875 C48.28329346 96.18959717 48.76580566 95.55497559 49.26293945 94.90112305 C50.25009646 92.92168115 50.25009646 92.92168115 49.28637695 90.4921875 C48.1623766 88.31458347 47.01116361 86.31256098 45.6171875 84.30078125 C45.17246094 83.64916016 44.72773438 82.99753906 44.26953125 82.32617188 C43.80933594 81.66166016 43.34914062 80.99714844 42.875 80.3125 C38 73.26859504 38 73.26859504 38 71 C47.24 71 56.48 71 66 71 C66.99 69.02 66.99 69.02 68 67 C69.36147031 64.87525429 70.74042945 62.77304239 72.1484375 60.6796875 C72.56106842 60.06215607 72.97369934 59.44462463 73.39883423 58.80838013 C74.72205356 56.82912522 76.04843897 54.85201634 77.375 52.875 C78.22808055 51.60040493 79.08094686 50.32566646 79.93359375 49.05078125 C82.6214338 45.03321038 85.31074279 41.0166224 88 37 C91.96 31.06 95.92 25.12 100 19 C67 19 34 19 0 19 C0 12.73 0 6.46 0 0 Z " fill="#010200" transform="translate(141,172)"/>
<path d="M0 0 C28.2351318 -2.2444672 28.2351318 -2.2444672 33.83203125 2.33203125 C35.95690647 5.18986509 37.55437332 7.8272966 39.03369141 11.04101562 C40.75590838 14.53244287 43.11659356 17.59065015 45.375 20.75 C46.30423221 22.1083227 47.22997939 23.46903564 48.15234375 24.83203125 C52.50150146 31.22131198 56.98912799 37.51321944 61.45751953 43.81933594 C63.04729776 46.06686666 64.63175607 48.31806491 66.21484375 50.5703125 C66.74408447 51.32256104 67.2733252 52.07480957 67.81860352 52.84985352 C68.81867137 54.27159704 69.81792675 55.6939126 70.81616211 57.11694336 C73.74112261 61.27066374 76.75684944 65.33035859 79.88525391 69.33374023 C81 71 81 71 81 73 C32.82 73 -15.36 73 -65 73 C-65 66.73 -65 60.46 -65 54 C-32 54 1 54 35 54 C20.21001899 31.78215691 20.21001899 31.78215691 5.1640625 9.74414062 C4.47828125 8.74447266 3.7925 7.74480469 3.0859375 6.71484375 C2.4882959 5.84980225 1.8906543 4.98476074 1.27490234 4.09350586 C0 2 0 2 0 0 Z " fill="#545454" transform="translate(222,307)"/>
<path d="M0 0 C0.66 0 1.32 0 2 0 C3.86172162 2.19078388 5.56333917 4.36834136 7.25 6.6875 C7.7346875 7.31333984 8.219375 7.93917969 8.71875 8.58398438 C12.10284699 13.22739332 12.10284699 13.22739332 11.6796875 16.40625 C9.17085948 20.28034722 6.57821107 24.07128097 3.875 27.8125 C3.31167969 28.60076172 2.74835938 29.38902344 2.16796875 30.20117188 C0.78322342 32.13746831 -0.60618627 34.07022641 -2 36 C-6.12548221 34.15744672 -7.78975348 31.89758986 -10.3125 28.125 C-11.03050781 27.07570313 -11.74851563 26.02640625 -12.48828125 24.9453125 C-14 22 -14 22 -13.76245117 20.07055664 C-12.89527361 17.71559895 -11.77479669 15.96498468 -10.3125 13.92578125 C-9.77882812 13.17619141 -9.24515625 12.42660156 -8.6953125 11.65429688 C-8.13585937 10.88150391 -7.57640625 10.10871094 -7 9.3125 C-6.44054687 8.52810547 -5.88109375 7.74371094 -5.3046875 6.93554688 C-1.20027546 1.20027546 -1.20027546 1.20027546 0 0 Z " fill="#535353" transform="translate(221,265)"/>
<path d="M0 0 C8.91 0 17.82 0 27 0 C25.08525475 4.78686312 22.88334557 8.55884399 20.0625 12.8125 C19.61970703 13.50537109 19.17691406 14.19824219 18.72070312 14.91210938 C17.56202511 16.66480413 16.28819385 18.34017162 15 20 C14.01 20 13.02 20 12 20 C10.55786133 18.37939453 10.55786133 18.37939453 9.08203125 16.1328125 C8.55029297 15.32972656 8.01855469 14.52664063 7.47070312 13.69921875 C6.92349609 12.84972656 6.37628906 12.00023437 5.8125 11.125 C5.25369141 10.28324219 4.69488281 9.44148437 4.11914062 8.57421875 C0 2.28737408 0 2.28737408 0 0 Z " fill="#545454" transform="translate(179,243)"/>
<path d="M0 0 C0.9583374 0.00523682 1.9166748 0.01047363 2.90405273 0.01586914 C4.45576172 0.02070313 4.45576172 0.02070313 6.03881836 0.02563477 C7.12743164 0.03401367 8.21604492 0.04239258 9.33764648 0.05102539 C10.97636719 0.05779297 10.97636719 0.05779297 12.64819336 0.06469727 C15.35723144 0.07652713 18.06616248 0.09300996 20.77514648 0.11352539 C16.47478023 7.10652219 11.95281913 13.73979463 6.77514648 20.11352539 C5.43528751 18.45210026 4.10431941 16.78351189 2.77514648 15.11352539 C2.16155273 14.40067383 1.54795898 13.68782227 0.91577148 12.95336914 C0.27124023 12.1812207 -0.37329102 11.40907227 -1.03735352 10.61352539 C-1.97514648 9.51524414 -1.97514648 9.51524414 -2.93188477 8.39477539 C-4.22485352 6.11352539 -4.22485352 6.11352539 -3.98657227 3.39477539 C-2.90249492 0.14810273 -2.90249492 0.14810273 0 0 Z " fill="#535353" transform="translate(237.224853515625,244.886474609375)"/>
</svg>
