<?xml version="1.0" encoding="UTF-8"?>
<svg version="1.1" xmlns="http://www.w3.org/2000/svg" width="329" height="145">
<path d="M0 0 C29.7 0 59.4 0 90 0 C85.50113379 7.87301587 85.50113379 7.87301587 83.22265625 10.98828125 C82.71549072 11.6858252 82.2083252 12.38336914 81.68579102 13.10205078 C81.15010498 13.83149902 80.61441895 14.56094727 80.0625 15.3125 C78.90612212 16.89964642 77.74987607 18.4868889 76.59375 20.07421875 C76.00207031 20.8842334 75.41039063 21.69424805 74.80078125 22.52880859 C71.34297676 27.27391394 67.91960946 32.04396683 64.49047852 36.80981445 C63.98959717 37.50421631 63.48871582 38.19861816 62.97265625 38.9140625 C62.48941895 39.58985352 62.00618164 40.26564453 61.50830078 40.96191406 C60.46059215 42.37762653 59.37204758 43.76365475 58.25341797 45.12402344 C55.0520751 48.88506938 55.0520751 48.88506938 53.765625 53.48828125 C55.67563878 57.37479663 58.15336005 60.73227257 60.75 64.1875 C61.93902252 65.80061879 63.12781818 67.41390482 64.31640625 69.02734375 C65.23317139 70.26266846 65.23317139 70.26266846 66.16845703 71.52294922 C69.04119266 75.40814993 71.86363727 79.32921259 74.6875 83.25 C75.76299281 84.73960357 76.8385132 86.22918722 77.9140625 87.71875 C80.80306705 91.72474006 83.68717027 95.73418241 86.5625 99.75 C87.32691406 100.81734375 88.09132813 101.8846875 88.87890625 102.984375 C95 111.68692449 95 111.68692449 95 114 C65.63 114 36.26 114 6 114 C6 109.05 6 104.1 6 99 C36.69 98.505 36.69 98.505 68 98 C63.71 92.06 59.42 86.12 55 80 C49.25 71.9375 49.25 71.9375 46.828125 68.52734375 C45.2294616 66.17662542 45.2294616 66.17662542 44 65 C43.34 66.32 42.68 67.64 42 69 C44.10268034 72.08434935 46.2074043 75.16729875 48.3125 78.25 C48.90740234 79.12269531 49.50230469 79.99539062 50.11523438 80.89453125 C50.69208984 81.73886719 51.26894531 82.58320312 51.86328125 83.453125 C52.39219971 84.22817383 52.92111816 85.00322266 53.46606445 85.80175781 C54.50069716 87.28446239 55.57920583 88.73736812 56.69604492 90.15917969 C58 92 58 92 58 94 C40.84 94 23.68 94 6 94 C6 91.36 6 88.72 6 86 C17.22 85.67 28.44 85.34 40 85 C38.246875 82.40125 36.49375 79.8025 34.6875 77.125 C34.14053467 76.30789551 33.59356934 75.49079102 33.0300293 74.64892578 C32.59086182 74.0042334 32.15169434 73.35954102 31.69921875 72.6953125 C31.03152466 71.7055542 31.03152466 71.7055542 30.3503418 70.69580078 C28.92628424 68.73031475 28.92628424 68.73031475 26 67 C25.3125 64.875 25.3125 64.875 25 63 C24.34 63 23.68 63 23 63 C22.525625 63.99 22.05125 64.98 21.5625 66 C19 69 19 69 16.29296875 69.3984375 C13.50785967 69.37698608 10.77270277 69.25814819 8 69 C9.72968857 64.09189894 12.48978519 60.49524933 15.63671875 56.40234375 C17.22528942 54.14634132 17.22528942 54.14634132 16.7734375 51.86328125 C16.51820312 51.24839844 16.26296875 50.63351563 16 50 C15.649375 49.0925 15.29875 48.185 14.9375 47.25 C14.628125 46.5075 14.31875 45.765 14 45 C14.60585938 45.10183594 15.21171875 45.20367187 15.8359375 45.30859375 C19.08035479 45.47331032 20.97514293 45.27534514 24 44 C28.18522439 39.62938983 30.95499072 34.17651578 34 29 C23.11 28.67 12.22 28.34 1 28 C1 25.36 1 22.72 1 20 C17.83 20 34.66 20 52 20 C50.42436573 23.93908567 49.12827874 26.50106178 46.7421875 29.86328125 C46.11699219 30.74951172 45.49179687 31.63574219 44.84765625 32.54882812 C44.19667969 33.46083984 43.54570313 34.37285156 42.875 35.3125 C42.21628906 36.24384766 41.55757812 37.17519531 40.87890625 38.13476562 C39.25711178 40.42643173 37.63070139 42.7146676 36 45 C38.97 45.495 38.97 45.495 42 46 C42.21140625 45.33484375 42.4228125 44.6696875 42.640625 43.984375 C44.47425857 39.95881165 47.04640984 36.7316966 49.75 33.25 C54.08468029 27.63016325 58.04978 21.92533 62 16 C41.54 15.67 21.08 15.34 0 15 C0 10.05 0 5.1 0 0 Z M32 49 C30.80161791 51.32854463 30.80161791 51.32854463 30 54 C30.99 55.485 30.99 55.485 32 57 C32.99 56.67 33.98 56.34 35 56 C35.92393164 54.13803054 35.92393164 54.13803054 36 52 C35.34 51.01 34.68 50.02 34 49 C33.34 49 32.68 49 32 49 Z " fill="#FFFFFF" transform="translate(8,12)"/>
<path d="M0 0 C1.98 0 3.96 0 6 0 C8.70071112 6.27980887 10.70024676 12.28460827 12 19 C12.66 19 13.32 19 14 19 C14.37125 17.081875 14.37125 17.081875 14.75 15.125 C15.91164561 9.830253 17.86340266 4.96810741 20 0 C21.98 0 23.96 0 26 0 C26 8.91 26 17.82 26 27 C24.35 27 22.7 27 21 27 C20.505 20.565 20.505 20.565 20 14 C18.68 17.96 17.36 21.92 16 26 C14.35 26.33 12.7 26.66 11 27 C10.35309078 25.3962669 9.70751236 23.79199694 9.0625 22.1875 C8.70285156 21.29417969 8.34320313 20.40085937 7.97265625 19.48046875 C7.26386514 17.6729091 6.6139753 15.84192591 6 14 C5.67 18.29 5.34 22.58 5 27 C3.35 27 1.7 27 0 27 C0 18.09 0 9.18 0 0 Z " fill="#FFFFFF" transform="translate(110,56)"/>
<path d="M0 0 C2.125 1.6875 2.125 1.6875 4.125 4.6875 C4.125 5.6775 4.125 6.6675 4.125 7.6875 C-0.56514085 7.05369718 -0.56514085 7.05369718 -2.25 5.0625 C-3.97459944 3.28479419 -3.97459944 3.28479419 -7.4375 3.875 C-10.91748777 4.37965918 -10.91748777 4.37965918 -12.875 6.6875 C-13.84666211 11.6267824 -14.52657136 15.17982869 -11.875 19.6875 C-9.04782787 22.02046251 -9.04782787 22.02046251 -5.8125 21.4375 C-2.775541 20.9281756 -2.775541 20.9281756 -0.875 18.6875 C-0.2324765 16.61875966 -0.2324765 16.61875966 0.125 14.6875 C-2.515 14.6875 -5.155 14.6875 -7.875 14.6875 C-7.875 13.3675 -7.875 12.0475 -7.875 10.6875 C-3.585 10.6875 0.705 10.6875 5.125 10.6875 C5.125 15.6375 5.125 20.5875 5.125 25.6875 C3.475 25.3575 1.825 25.0275 0.125 24.6875 C-0.638125 25.0175 -1.40125 25.3475 -2.1875 25.6875 C-5.95260187 27.08846814 -9.05641434 26.90636168 -12.875 25.6875 C-15.51733769 23.49492191 -17.34169809 21.75410382 -18.875 18.6875 C-19.90205184 7.44044054 -19.90205184 7.44044054 -17.125 3.0625 C-12.29419416 -2.03668394 -6.4177785 -2.9298554 0 0 Z " fill="#FFFFFF" transform="translate(161.875,99.3125)"/>
<path d="M0 0 C5 0 5 0 6.4855957 1.37695312 C6.87835693 2.00537109 7.27111816 2.63378906 7.67578125 3.28125 C8.11083984 3.95800781 8.54589844 4.63476562 8.99414062 5.33203125 C9.42919922 6.04746094 9.86425781 6.76289062 10.3125 7.5 C10.76689453 8.21542969 11.22128906 8.93085937 11.68945312 9.66796875 C12.80881194 11.43537741 13.90652207 13.21646319 15 15 C15.33 10.05 15.66 5.1 16 0 C17.65 0 19.3 0 21 0 C21 8.58 21 17.16 21 26 C15 26 15 26 13.40087891 24.53125 C12.81959229 23.52578125 12.81959229 23.52578125 12.2265625 22.5 C11.79472656 21.778125 11.36289063 21.05625 10.91796875 20.3125 C10.49128906 19.549375 10.06460938 18.78625 9.625 18 C9.17511719 17.236875 8.72523438 16.47375 8.26171875 15.6875 C7.1546716 13.80316443 6.07467588 11.90298337 5 10 C4.67 15.28 4.34 20.56 4 26 C2.68 26 1.36 26 0 26 C0 17.42 0 8.84 0 0 Z " fill="#FFFFFF" transform="translate(222,99)"/>
<path d="M0 0 C3.28368172 1.88637035 4.62673421 3.28740168 6.375 6.625 C7.33605146 11.81467789 7.55832614 17.2040141 4.91796875 21.94140625 C2.29621748 25.22849622 0.1529378 26.74984913 -4.05078125 27.23828125 C-9.53617792 27.41828563 -12.75528536 26.83059614 -17 23 C-19.65746092 18.77222127 -19.55554235 13.84603867 -19 9 C-17.44392346 4.79859335 -15.86950532 2.29751878 -12 0 C-7.81219426 -1.39593525 -4.27510924 -0.96171174 0 0 Z M-12 6 C-14.68088358 10.02132537 -14.80264522 13.2751503 -14 18 C-11.5422681 21.54202539 -10.18675879 22.7820239 -5.9375 23.5625 C-2.38265419 22.88178485 -1.222954 21.79927541 1 19 C2.60454372 15.79091256 2.48018091 12.48131162 2 9 C0.16484361 5.8054685 -1.03056251 4.39771795 -4.4375 3 C-7.79478305 3 -9.34679605 3.99216998 -12 6 Z " fill="#FFFFFF" transform="translate(188,14)"/>
<path d="M0 0 C13 0 13 0 18 3 C21.22544446 6.23959115 21.4580837 8.87947722 21.5 13.375 C21.41158905 17.51635523 21.33543877 20.47007585 18.6875 23.75 C12.55351162 28.88543213 9.42559043 27 0 27 C0 18.09 0 9.18 0 0 Z M4 4 C4 10.27 4 16.54 4 23 C11.45570612 23.81294768 11.45570612 23.81294768 14.4375 21.125 C17.25370672 17.29495887 17.32273441 14.76033254 17 10 C15.82725006 7.12608179 15.82725006 7.12608179 14 5 C10.4202491 3.63106761 10.4202491 3.63106761 4 4 Z " fill="#FFFFFF" transform="translate(213,56)"/>
<path d="M0 0 C1.32 0 2.64 0 4 0 C4.33 3.3 4.66 6.6 5 10 C5.64066406 9.278125 6.28132813 8.55625 6.94140625 7.8125 C7.80636719 6.884375 8.67132813 5.95625 9.5625 5 C10.40941406 4.071875 11.25632812 3.14375 12.12890625 2.1875 C15.66687919 -0.50809843 17.65616727 -0.42955083 22 0 C21.06409496 1.1055189 20.12620142 2.20935453 19.1875 3.3125 C18.66542969 3.92738281 18.14335937 4.54226562 17.60546875 5.17578125 C16 7 16 7 14.23828125 8.48046875 C12.79657034 9.91028898 12.79657034 9.91028898 13.05859375 11.83203125 C14.34044132 14.78400386 16.12188594 17.12397279 18.0625 19.6875 C22 24.91212654 22 24.91212654 22 26 C19.2734375 26.34375 19.2734375 26.34375 16 26 C13.6640625 23.59375 13.6640625 23.59375 11.625 20.5 C10.93664062 19.4790625 10.24828125 18.458125 9.5390625 17.40625 C9.03117187 16.6121875 8.52328125 15.818125 8 15 C4.82990528 16.62078662 4.82990528 16.62078662 4.48828125 19.1640625 C4.43027344 19.97617187 4.37226562 20.78828125 4.3125 21.625 C4.24675781 22.44226563 4.18101563 23.25953125 4.11328125 24.1015625 C4.07589844 24.72804688 4.03851563 25.35453125 4 26 C2.68 26 1.36 26 0 26 C0 17.42 0 8.84 0 0 Z " fill="#FFFFFF" transform="translate(113,14)"/>
<path d="M0 0 C6.27 0 12.54 0 19 0 C19 1.32 19 2.64 19 4 C14.05 4 9.1 4 4 4 C4 5.98 4 7.96 4 10 C8.62 10 13.24 10 18 10 C18 11.32 18 12.64 18 14 C13.38 14 8.76 14 4 14 C4 16.64 4 19.28 4 22 C9.28 22 14.56 22 20 22 C20 23.32 20 24.64 20 26 C13.4 26 6.8 26 0 26 C0 17.42 0 8.84 0 0 Z " fill="#FFFFFF" transform="translate(185,99)"/>
<path d="M0 0 C6.27 0 12.54 0 19 0 C19 1.32 19 2.64 19 4 C14.05 4 9.1 4 4 4 C4 6.31 4 8.62 4 11 C8.62 11 13.24 11 18 11 C18 12.32 18 13.64 18 15 C13.38 15 8.76 15 4 15 C4 17.64 4 20.28 4 23 C8.95 23 13.9 23 19 23 C19 24.32 19 25.64 19 27 C12.73 27 6.46 27 0 27 C0 18.09 0 9.18 0 0 Z " fill="#FFFFFF" transform="translate(165,56)"/>
<path d="M0 0 C1.32 0 2.64 0 4 0 C4 3.63 4 7.26 4 11 C7.96 11 11.92 11 16 11 C16 7.37 16 3.74 16 0 C17.65 0 19.3 0 21 0 C21 8.58 21 17.16 21 26 C19.35 26 17.7 26 16 26 C16 22.37 16 18.74 16 15 C12.04 15 8.08 15 4 15 C4 18.63 4 22.26 4 26 C2.68 26 1.36 26 0 26 C0 17.42 0 8.84 0 0 Z " fill="#FFFFFF" transform="translate(291,14)"/>
<path d="M0 0 C3 2.3125 3 2.3125 5 5 C5 6.32 5 7.64 5 9 C3.68 9 2.36 9 1 9 C0.67 7.68 0.34 6.36 0 5 C-3.60093965 4.07882939 -5.38627771 3.71359626 -8.8125 5.3125 C-11.08915626 6.81578588 -11.08915626 6.81578588 -12 9 C-12.17786156 12.67580556 -12.26315261 15.859672 -11.4375 19.4375 C-9.08010061 21.99989064 -6.34071306 21.76137764 -3 22 C-2.34 22 -1.68 22 -1 22 C-0.34 20.02 0.32 18.04 1 16 C2.65 16 4.3 16 6 16 C4.09349221 23.77268561 4.09349221 23.77268561 1 26 C-2.7407864 27.2469288 -6.1213243 27.63789184 -10 27 C-13.90743224 24.61212474 -15.61370118 22.89016685 -17.4375 18.6875 C-18.32261831 12.88505778 -17.96686156 8.86466158 -15.25 3.625 C-10.95644515 -1.38414732 -6.12922484 -1.92774007 0 0 Z " fill="#FFFFFF" transform="translate(248,14)"/>
<path d="M0 0 C1.2065625 0.0309375 1.2065625 0.0309375 2.4375 0.0625 C3.94264646 4.18564058 5.44074372 8.31130702 6.9375 12.4375 C7.36675781 13.613125 7.79601562 14.78875 8.23828125 16 C8.64433594 17.12148437 9.05039062 18.24296875 9.46875 19.3984375 C9.84580078 20.43532715 10.22285156 21.4722168 10.61132812 22.54052734 C11.4375 25.0625 11.4375 25.0625 11.4375 27.0625 C9.7875 27.0625 8.1375 27.0625 6.4375 27.0625 C5.18085022 24.15649739 4.4375 22.26645416 4.4375 19.0625 C1.1375 19.0625 -2.1625 19.0625 -5.5625 19.0625 C-5.7790625 20.2071875 -5.7790625 20.2071875 -6 21.375 C-6.5625 24.0625 -6.5625 24.0625 -7.5625 27.0625 C-9.2125 27.0625 -10.8625 27.0625 -12.5625 27.0625 C-10.83422783 20.7558226 -8.72552164 14.62144941 -6.4375 8.5 C-6.17179199 7.78521484 -5.90608398 7.07042969 -5.63232422 6.33398438 C-3.269646 0.07974746 -3.269646 0.07974746 0 0 Z M-1.5625 8.0625 C-2.2225 10.3725 -2.8825 12.6825 -3.5625 15.0625 C-1.5825 15.0625 0.3975 15.0625 2.4375 15.0625 C1.7775 12.7525 1.1175 10.4425 0.4375 8.0625 C-0.2225 8.0625 -0.8825 8.0625 -1.5625 8.0625 Z " fill="#FFFFFF" transform="translate(307.5625,55.9375)"/>
<path d="M0 0 C1.625 1.1875 1.625 1.1875 3.625 4.1875 C3.625 5.5075 3.625 6.8275 3.625 8.1875 C2.305 8.1875 0.985 8.1875 -0.375 8.1875 C-0.973125 7.506875 -1.57125 6.82625 -2.1875 6.125 C-4.34024412 3.78691621 -4.34024412 3.78691621 -8 4.1875 C-11.33298296 4.85080958 -11.33298296 4.85080958 -12.8125 6.8125 C-13.86178136 11.24279906 -13.93787621 14.82474706 -12.1875 19.0625 C-10.52070573 21.34490643 -10.52070573 21.34490643 -7.9375 22.1875 C-5.31935341 22.39491 -5.31935341 22.39491 -3.125 20.9375 C-1.1327593 19.2061339 -1.1327593 19.2061339 -0.375 16.1875 C1.275 16.1875 2.925 16.1875 4.625 16.1875 C3.18688605 22.53916994 3.18688605 22.53916994 1 25.0625 C-3.81610113 27.34381106 -7.73405041 27.74480363 -12.6875 26.0625 C-15.71402443 23.95097132 -16.7622254 22.48236615 -18.375 19.1875 C-19.12358182 14.20319272 -19.56400063 8.68850133 -17.35546875 4.04296875 C-12.97484103 -1.39642096 -6.37890196 -2.18225593 0 0 Z " fill="#FFFFFF" transform="translate(278.375,98.8125)"/>
<path d="M0 0 C1.2065625 0.0309375 1.2065625 0.0309375 2.4375 0.0625 C11.4375 21.1977459 11.4375 21.1977459 11.4375 26.0625 C9.7875 26.0625 8.1375 26.0625 6.4375 26.0625 C5.7775 23.4225 5.1175 20.7825 4.4375 18.0625 C1.4675 18.3925 -1.5025 18.7225 -4.5625 19.0625 C-5.5525 21.3725 -6.5425 23.6825 -7.5625 26.0625 C-8.8825 26.0625 -10.2025 26.0625 -11.5625 26.0625 C-10.47327641 19.96284791 -8.6746961 14.34623884 -6.5 8.5625 C-6.2304248 7.84384766 -5.96084961 7.12519531 -5.68310547 6.38476562 C-3.27122449 0.07978596 -3.27122449 0.07978596 0 0 Z M-0.5625 6.0625 C-1.5525 9.0325 -2.5425 12.0025 -3.5625 15.0625 C-1.5825 15.0625 0.3975 15.0625 2.4375 15.0625 C1.7775 12.0925 1.1175 9.1225 0.4375 6.0625 C0.1075 6.0625 -0.2225 6.0625 -0.5625 6.0625 Z " fill="#FFFFFF" transform="translate(123.5625,97.9375)"/>
<path d="M0 0 C2.29296875 -0.28125 2.29296875 -0.28125 5 0 C6.80078125 1.96875 6.80078125 1.96875 8.3125 4.5 C8.82425781 5.3353125 9.33601563 6.170625 9.86328125 7.03125 C10.23839844 7.6809375 10.61351562 8.330625 11 9 C13.1387181 6.98815501 14.345858 5.4120414 15.875 2.8125 C16.57625 1.884375 17.2775 0.95625 18 0 C20.75 -0.375 20.75 -0.375 23 0 C21.69102452 3.57913102 20.07652197 6.48216182 17.9375 9.625 C14.61802144 14.98785587 14.02367216 19.7742221 14 26 C12.35 26 10.7 26 9 26 C9.020625 25.35675781 9.04125 24.71351562 9.0625 24.05078125 C8.87717643 15.93129224 6.13794291 11.18982423 1.71484375 4.65234375 C0 2 0 2 0 0 Z " fill="#FFFFFF" transform="translate(298,99)"/>
<path d="M0 0 C1.32 0 2.64 0 4 0 C4 8.91 4 17.82 4 27 C2.68 27 1.36 27 0 27 C0 18.09 0 9.18 0 0 Z " fill="#FFFFFF" transform="translate(264,56)"/>
</svg>
