<?xml version="1.0" standalone="no"?>
<!DOCTYPE svg PUBLIC "-//W3C//DTD SVG 20010904//EN"
 "http://www.w3.org/TR/2001/REC-SVG-20010904/DTD/svg10.dtd">
<svg version="1.0" xmlns="http://www.w3.org/2000/svg"
 width="534.000000pt" height="534.000000pt" viewBox="0 0 534.000000 534.000000"
 preserveAspectRatio="xMidYMid meet">

<g transform="translate(0.000000,534.000000) scale(0.100000,-0.100000)"
fill="#000000" stroke="none">
<path d="M1390 4000 l0 -200 916 0 c733 0 915 -3 911 -13 -2 -7 -85 -125 -183
-263 -99 -137 -240 -336 -314 -442 l-135 -191 -112 -1 c-62 0 -113 2 -113 5 0
3 113 164 250 359 138 194 250 356 250 360 0 3 -326 6 -725 6 l-726 0 3 -90 3
-91 504 1 c413 0 502 -3 498 -13 -3 -8 -73 -115 -157 -238 -83 -123 -161 -239
-173 -256 l-22 -32 -133 -3 -132 -3 65 -97 65 -97 -97 -143 c-53 -79 -120
-178 -150 -220 -29 -43 -48 -78 -43 -79 6 0 62 0 125 0 63 0 121 0 128 0 8 1
51 53 96 117 l83 116 55 -82 c52 -78 54 -82 39 -105 -22 -33 -21 -33 21 -37
36 -3 42 -9 118 -121 44 -65 125 -184 180 -265 55 -80 102 -150 103 -154 2 -4
-224 -8 -502 -8 l-506 0 0 -90 0 -90 720 0 c683 0 720 1 711 17 -5 10 -67 99
-137 198 -205 288 -354 503 -354 509 0 3 8 6 18 6 10 0 35 28 61 65 24 36 47
65 50 65 7 -1 13 -9 286 -395 109 -154 215 -302 235 -330 20 -27 74 -103 119
-167 45 -65 87 -120 92 -123 5 -4 9 -12 9 -20 0 -12 -143 -14 -912 -14 l-913
-1 -3 -195 -2 -195 1265 0 c696 0 1265 2 1265 5 0 6 -179 257 -498 698 -32 43
-64 88 -72 101 -8 12 -60 84 -115 160 -55 76 -141 195 -191 265 -50 69 -150
209 -222 309 -73 101 -132 187 -132 191 0 8 194 280 670 941 74 102 196 272
272 378 l138 192 -1275 0 -1275 0 0 -200z m998 -1224 c28 -40 52 -76 52 -80 0
-11 -104 -155 -112 -156 -9 0 -108 137 -108 151 0 12 101 159 109 159 3 0 30
-33 59 -74z"/>
</g>
</svg>
